<svg width="228" height="159" viewBox="0 0 228 159" fill="none" xmlns="http://www.w3.org/2000/svg">
<path fill-rule="evenodd" clip-rule="evenodd" d="M75.7 100.5L41.6 59L74.9 24.1L55.2 0.199951L0.700012 57.2L0.800013 57.2999L0.700012 57.4L34.8 98.8L1.10001 134.1L20.8 158.1L75.7 100.7L75.6 100.6L75.7 100.5Z" fill="#FF0000"/>
<path fill-rule="evenodd" clip-rule="evenodd" d="M150 100.5L115.8 59L149.2 24.1L129.5 0.199951L75 57.2V57.2999L74.9 57.4L109.1 98.8L75.3 134.1L95 158.1L149.9 100.7V100.6L150 100.5Z" fill="#2F6EBA"/>
<path fill-rule="evenodd" clip-rule="evenodd" d="M227.8 100.5L193.6 59L227 24.1L207.3 0.199951L152.8 57.2V57.2999L152.7 57.4L186.9 98.8L153.1 134.1L172.8 158.1L227.7 100.7V100.6L227.8 100.5Z" fill="#00B050"/>
</svg>
